<?xml version="1.0" encoding="utf-8"?>
<!-- Generator: Adobe Illustrator 24.0.0, SVG Export Plug-In . SVG Version: 6.00 Build 0)  -->
<svg version="1.1" id="Layer_4" xmlns="http://www.w3.org/2000/svg" xmlns:xlink="http://www.w3.org/1999/xlink" x="0px" y="0px"
	 viewBox="0 0 369.3 295.44" style="enable-background:new 0 0 369.3 295.44;" xml:space="preserve">
<g>
	
		<linearGradient id="SVGID_1_" gradientUnits="userSpaceOnUse" x1="-334.0823" y1="89.1689" x2="-333.0823" y2="89.1689" gradientTransform="matrix(0 -112.8731 112.8731 0 -9978.418 -37594.9961)">
		<stop  offset="0" style="stop-color:#FDD291"/>
		<stop  offset="0.1157" style="stop-color:#FAB890"/>
		<stop  offset="0.2265" style="stop-color:#F8A68F"/>
		<stop  offset="0.3067" style="stop-color:#F7A08F"/>
		<stop  offset="0.5077" style="stop-color:#CC91A6"/>
		<stop  offset="0.7117" style="stop-color:#A584BC"/>
		<stop  offset="1" style="stop-color:#84A1D1"/>
	</linearGradient>
	<path style="fill:url(#SVGID_1_);" d="M125.1,58.6l-12.43,8.39l54.25,32.94l3.44-4.93L125.1,58.6 M52.24,0H2.35l94.73,57.52
		l12.69-11.25L52.24,0"/>
	
		<linearGradient id="SVGID_2_" gradientUnits="userSpaceOnUse" x1="-334.0823" y1="89.5059" x2="-333.0823" y2="89.5059" gradientTransform="matrix(0 -112.8731 112.8731 0 -9978.418 -37594.9961)">
		<stop  offset="0" style="stop-color:#FDD291"/>
		<stop  offset="0.1157" style="stop-color:#FAB890"/>
		<stop  offset="0.2265" style="stop-color:#F8A68F"/>
		<stop  offset="0.3067" style="stop-color:#F7A08F"/>
		<stop  offset="0.5077" style="stop-color:#CC91A6"/>
		<stop  offset="0.7117" style="stop-color:#A584BC"/>
		<stop  offset="1" style="stop-color:#84A1D1"/>
	</linearGradient>
	<path style="fill:url(#SVGID_2_);" d="M97.08,57.52L36.85,110.9l3.67,4.76l72.15-48.68L97.08,57.52 M158.36,3.2l-48.59,43.07
		L125.1,58.6l57.42-38.74L158.36,3.2 M211.94,0h-18l7.69,6.95L211.94,0"/>
	
		<linearGradient id="SVGID_3_" gradientUnits="userSpaceOnUse" x1="-334.0823" y1="89.3881" x2="-333.0823" y2="89.3881" gradientTransform="matrix(0 -112.8731 112.8731 0 -9978.418 -37594.9961)">
		<stop  offset="0" style="stop-color:#FDDBA7"/>
		<stop  offset="0.0882" style="stop-color:#FBCBA6"/>
		<stop  offset="0.2142" style="stop-color:#FAB9A5"/>
		<stop  offset="0.3067" style="stop-color:#F9B3A5"/>
		<stop  offset="0.4574" style="stop-color:#DFAAB3"/>
		<stop  offset="0.7117" style="stop-color:#B79DC9"/>
		<stop  offset="1" style="stop-color:#9DB4DA"/>
	</linearGradient>
	<polyline style="fill:url(#SVGID_3_);" points="109.77,46.27 97.08,57.52 112.66,66.99 125.1,58.6 109.77,46.27 	"/>
	
		<linearGradient id="SVGID_4_" gradientUnits="userSpaceOnUse" x1="-334.0823" y1="90.107" x2="-333.0823" y2="90.107" gradientTransform="matrix(0 -112.8731 112.8731 0 -9978.418 -37594.9961)">
		<stop  offset="0" style="stop-color:#FDD291"/>
		<stop  offset="0.1157" style="stop-color:#FAB890"/>
		<stop  offset="0.2265" style="stop-color:#F8A68F"/>
		<stop  offset="0.3067" style="stop-color:#F7A08F"/>
		<stop  offset="0.5077" style="stop-color:#CC91A6"/>
		<stop  offset="0.7117" style="stop-color:#A584BC"/>
		<stop  offset="1" style="stop-color:#84A1D1"/>
	</linearGradient>
	<path style="fill:url(#SVGID_4_);" d="M201.64,6.95l-19.12,12.9l35.66,24.58l12.58-11.15L201.64,6.95 M161.98,0h-8.27l4.65,3.2
		L161.98,0"/>
	
		<linearGradient id="SVGID_5_" gradientUnits="userSpaceOnUse" x1="-334.0823" y1="89.9986" x2="-333.0823" y2="89.9986" gradientTransform="matrix(0 -112.8731 112.8731 0 -9978.418 -37594.9961)">
		<stop  offset="0" style="stop-color:#FDDBA7"/>
		<stop  offset="0.0882" style="stop-color:#FBCBA6"/>
		<stop  offset="0.2142" style="stop-color:#FAB9A5"/>
		<stop  offset="0.3067" style="stop-color:#F9B3A5"/>
		<stop  offset="0.4574" style="stop-color:#DFAAB3"/>
		<stop  offset="0.7117" style="stop-color:#B79DC9"/>
		<stop  offset="1" style="stop-color:#9DB4DA"/>
	</linearGradient>
	<polyline style="fill:url(#SVGID_5_);" points="193.95,0 161.98,0 158.36,3.2 182.52,19.85 201.64,6.95 193.95,0 	"/>
	
		<linearGradient id="SVGID_6_" gradientUnits="userSpaceOnUse" x1="-334.0823" y1="90.7038" x2="-333.0823" y2="90.7038" gradientTransform="matrix(0 -112.8731 112.8731 0 -9978.418 -37594.9961)">
		<stop  offset="0" style="stop-color:#FDD291"/>
		<stop  offset="0.1157" style="stop-color:#FAB890"/>
		<stop  offset="0.2265" style="stop-color:#F8A68F"/>
		<stop  offset="0.3067" style="stop-color:#F7A08F"/>
		<stop  offset="0.5077" style="stop-color:#CC91A6"/>
		<stop  offset="0.7117" style="stop-color:#A584BC"/>
		<stop  offset="1" style="stop-color:#84A1D1"/>
	</linearGradient>
	<polyline style="fill:url(#SVGID_6_);" points="242.76,44.13 230.12,52.66 285.36,90.74 289.08,86.02 242.76,44.13 	"/>
	
		<linearGradient id="SVGID_7_" gradientUnits="userSpaceOnUse" x1="-334.0823" y1="90.546" x2="-333.0823" y2="90.546" gradientTransform="matrix(0 -112.8731 112.8731 0 -9978.418 -37594.9961)">
		<stop  offset="0" style="stop-color:#FDD291"/>
		<stop  offset="0.1157" style="stop-color:#FAB890"/>
		<stop  offset="0.2265" style="stop-color:#F8A68F"/>
		<stop  offset="0.3067" style="stop-color:#F7A08F"/>
		<stop  offset="0.5077" style="stop-color:#CC91A6"/>
		<stop  offset="0.7117" style="stop-color:#A584BC"/>
		<stop  offset="1" style="stop-color:#84A1D1"/>
	</linearGradient>
	<path style="fill:url(#SVGID_7_);" d="M218.18,44.43l-42.76,37.9l3.67,4.76l51.03-34.43L218.18,44.43 M308.17,0h-39.86
		l-37.56,33.28l12,10.85L308.17,0"/>
	
		<linearGradient id="SVGID_8_" gradientUnits="userSpaceOnUse" x1="-334.0823" y1="90.4457" x2="-333.0823" y2="90.4457" gradientTransform="matrix(0 -112.8731 112.8731 0 -9978.418 -37594.9961)">
		<stop  offset="0" style="stop-color:#FDDBA7"/>
		<stop  offset="0.0882" style="stop-color:#FBCBA6"/>
		<stop  offset="0.2142" style="stop-color:#FAB9A5"/>
		<stop  offset="0.3067" style="stop-color:#F9B3A5"/>
		<stop  offset="0.4574" style="stop-color:#DFAAB3"/>
		<stop  offset="0.7117" style="stop-color:#B79DC9"/>
		<stop  offset="1" style="stop-color:#9DB4DA"/>
	</linearGradient>
	<polyline style="fill:url(#SVGID_8_);" points="230.76,33.28 218.18,44.43 230.12,52.66 242.76,44.13 230.76,33.28 	"/>
</g>
<linearGradient id="SVGID_9_" gradientUnits="userSpaceOnUse" x1="-333.1835" y1="85.6397" x2="-332.1835" y2="85.6397" gradientTransform="matrix(0 -112.8731 112.8731 0 -9978.418 -37594.9961)">
	<stop  offset="0" style="stop-color:#FDC776"/>
	<stop  offset="0.0346" style="stop-color:#FCBC75"/>
	<stop  offset="0.1432" style="stop-color:#F8A074"/>
	<stop  offset="0.2376" style="stop-color:#F68E73"/>
	<stop  offset="0.3067" style="stop-color:#F58873"/>
	<stop  offset="0.5484" style="stop-color:#B57296"/>
	<stop  offset="0.7117" style="stop-color:#8E65AB"/>
	<stop  offset="1" style="stop-color:#6589C6"/>
</linearGradient>
<path style="fill:url(#SVGID_9_);" d="M-342.93-101.45h-101.48l57.53,46.27l48.59-43.07L-342.93-101.45 M-228.34-101.45h-56.37
	l-10.31,6.95l29.12,26.33L-228.34-101.45 M-127.35-101.45h-61.13l-65.41,44.13l46.32,41.88l-3.72,4.73l-55.24-38.08l-51.03,34.43
	l-3.67-4.76l42.76-37.9l-35.66-24.58l-57.42,38.75l45.25,36.4l-3.44,4.93l-54.25-32.94l-72.15,48.68l-3.67-4.76l60.23-53.38
	l-94.72-57.53h-2.35v295.44h369.3V-101.45"/>
<g>
	
		<linearGradient id="SVGID_10_" gradientUnits="userSpaceOnUse" x1="-334.0823" y1="88.8339" x2="-333.0823" y2="88.8339" gradientTransform="matrix(0 -112.8731 112.8731 0 -9978.418 -37594.9961)">
		<stop  offset="0" style="stop-color:#FDC776"/>
		<stop  offset="0.0346" style="stop-color:#FCBC75"/>
		<stop  offset="0.1432" style="stop-color:#F8A074"/>
		<stop  offset="0.2376" style="stop-color:#F68E73"/>
		<stop  offset="0.3067" style="stop-color:#F58873"/>
		<stop  offset="0.5484" style="stop-color:#B57296"/>
		<stop  offset="0.7117" style="stop-color:#8E65AB"/>
		<stop  offset="1" style="stop-color:#6589C6"/>
	</linearGradient>
	<polygon style="fill:url(#SVGID_10_);" points="36.84,110.91 97.07,57.53 2.35,0 0,0 0,115.66 40.5,115.66 	"/>
	
		<linearGradient id="SVGID_11_" gradientUnits="userSpaceOnUse" x1="-334.0823" y1="90.4856" x2="-333.0823" y2="90.4856" gradientTransform="matrix(0 -112.8731 112.8731 0 -9978.418 -37594.9961)">
		<stop  offset="0" style="stop-color:#FDC776"/>
		<stop  offset="0.0346" style="stop-color:#FCBC75"/>
		<stop  offset="0.1432" style="stop-color:#F8A074"/>
		<stop  offset="0.2376" style="stop-color:#F68E73"/>
		<stop  offset="0.3067" style="stop-color:#F58873"/>
		<stop  offset="0.5484" style="stop-color:#B57296"/>
		<stop  offset="0.7117" style="stop-color:#8E65AB"/>
		<stop  offset="1" style="stop-color:#6589C6"/>
	</linearGradient>
	<polygon style="fill:url(#SVGID_11_);" points="268.31,0 211.94,0 201.63,6.95 230.75,33.28 	"/>
	
		<linearGradient id="SVGID_12_" gradientUnits="userSpaceOnUse" x1="-334.0823" y1="89.3368" x2="-333.0823" y2="89.3368" gradientTransform="matrix(0 -112.8731 112.8731 0 -9978.418 -37594.9961)">
		<stop  offset="0" style="stop-color:#FDC776"/>
		<stop  offset="0.0346" style="stop-color:#FCBC75"/>
		<stop  offset="0.1432" style="stop-color:#F8A074"/>
		<stop  offset="0.2376" style="stop-color:#F68E73"/>
		<stop  offset="0.3067" style="stop-color:#F58873"/>
		<stop  offset="0.5484" style="stop-color:#B57296"/>
		<stop  offset="0.7117" style="stop-color:#8E65AB"/>
		<stop  offset="1" style="stop-color:#6589C6"/>
	</linearGradient>
	<polygon style="fill:url(#SVGID_12_);" points="158.36,3.2 153.72,0 52.24,0 109.77,46.27 	"/>
	
		<linearGradient id="SVGID_13_" gradientUnits="userSpaceOnUse" x1="-334.0823" y1="90.2193" x2="-333.0823" y2="90.2193" gradientTransform="matrix(0 -112.8731 112.8731 0 -9978.418 -37594.9961)">
		<stop  offset="0" style="stop-color:#FDC776"/>
		<stop  offset="0.0346" style="stop-color:#FCBC75"/>
		<stop  offset="0.1432" style="stop-color:#F8A074"/>
		<stop  offset="0.2376" style="stop-color:#F68E73"/>
		<stop  offset="0.3067" style="stop-color:#F58873"/>
		<stop  offset="0.5484" style="stop-color:#B57296"/>
		<stop  offset="0.7117" style="stop-color:#8E65AB"/>
		<stop  offset="1" style="stop-color:#6589C6"/>
	</linearGradient>
	<polygon style="fill:url(#SVGID_13_);" points="369.3,0 308.17,0 242.76,44.13 289.08,86.01 285.36,90.74 230.12,52.66 
		179.09,87.09 175.42,82.33 218.18,44.43 182.52,19.85 125.1,58.6 170.35,95 166.91,99.93 112.66,66.99 40.52,115.66 369.3,115.66 	
		"/>
	<polygon style="fill:#FFFFFF;" points="40.52,115.66 40.5,115.66 40.51,115.67 	"/>
</g>
<rect style="fill:none;" width="369.3" height="295.44"/>
<rect y="115.67" style="fill:#231F20;" width="369.3" height="179.77"/>
</svg>
